<svg width="33" height="33" viewBox="0 0 33 33" fill="none" xmlns="http://www.w3.org/2000/svg">
<g clip-path="url(#clip0_1178_17076)">
<path d="M31.3252 17.2598H29.8052V24.8798H31.3252V17.2598Z" fill="#EC4899"/>
<path d="M29.8051 2.02002H28.2751V8.12002H29.8051V2.02002Z" fill="#EC4899"/>
<path d="M28.2751 17.26H29.8051V15.74H28.2751V14.21H26.7551V29.45H28.2751V26.4H29.8051V24.88H28.2751V17.26Z" fill="#EC4899"/>
<path d="M28.2751 8.12012H26.7551V9.64012H28.2751V8.12012Z" fill="#EC4899"/>
<path d="M28.2751 0.5H26.7551V2.02H28.2751V0.5Z" fill="#EC4899"/>
<path d="M26.7551 29.4502H25.2251V30.9802H26.7551V29.4502Z" fill="#EC4899"/>
<path d="M26.7551 12.6899H25.2251V14.2099H26.7551V12.6899Z" fill="#EC4899"/>
<path d="M25.2251 17.2598H23.7051V20.3098H25.2251V17.2598Z" fill="#EC4899"/>
<path d="M25.2251 3.5498H23.7051V6.5898H25.2251V3.5498Z" fill="#EC4899"/>
<path d="M25.2251 30.98H8.46509V32.5H25.2251V30.98Z" fill="#EC4899"/>
<path d="M23.7052 15.7402H20.6552V17.2602H23.7052V15.7402Z" fill="#EC4899"/>
<path d="M23.7052 6.58984H22.1852V8.11984H23.7052V6.58984Z" fill="#EC4899"/>
<path d="M23.7052 2.02002H22.1852V3.55002H23.7052V2.02002Z" fill="#EC4899"/>
<path d="M23.7052 20.3101H20.6552V21.8301H23.7052V19.8101Z" fill="#EC4899"/>
<path d="M11.5151 24.8799V26.3999H13.0351V27.9299H14.5651V29.4499H19.1351V27.9299H20.6551V26.3999H22.1851V24.8799H11.5151Z" fill="#EC4899"/>
<path d="M20.6551 17.2598H19.1351V20.3098H20.6551V17.2598Z" fill="#EC4899"/>
<path d="M14.5651 23.3601H19.1351V21.8301H17.6051V20.3101H16.0851V21.8301H14.5651V23.3601Z" fill="#EC4899"/>
<path d="M14.5652 17.2598H13.0352V20.3098H14.5652V17.2598Z" fill="#EC4899"/>
<path d="M13.0351 20.3101H9.99512V21.8301H13.0351V20.3101Z" fill="#EC4899"/>
<path d="M13.0351 15.7402H9.99512V17.2602H13.0351V15.7402Z" fill="#EC4899"/>
<path d="M25.2251 12.69V11.17H17.6051V8.12H19.1351V6.59H20.6551V2.02H19.1351V0.5H14.5651V2.02H13.0351V6.59H14.5651V8.12H16.0851V11.17H8.46509V12.69H25.2251Z" fill="#EC4899"/>
<path d="M11.5151 6.58984H9.99512V8.11984H11.5151V6.58984Z" fill="#EC4899"/>
<path d="M11.5151 2.02002H9.99512V3.55002H11.5151V2.02002Z" fill="#EC4899"/>
<path d="M9.99509 17.2598H8.46509V20.3098H9.99509V17.2598Z" fill="#EC4899"/>
<path d="M9.99509 3.5498H8.46509V6.5898H9.99509V3.5498Z" fill="#EC4899"/>
<path d="M8.46507 29.4502H6.94507V30.9802H8.46507V29.4502Z" fill="#EC4899"/>
<path d="M8.46507 12.6899H6.94507V14.2099H8.46507V12.6899Z" fill="#EC4899"/>
<path d="M6.94514 14.21H5.41514V15.74H3.89514V17.26H5.41514V24.88H3.89514V26.4H5.41514V29.45H6.94514V14.21Z" fill="#EC4899"/>
<path d="M6.94516 8.12012H5.41516V9.64012H6.94516V8.12012Z" fill="#EC4899"/>
<path d="M6.94516 0.5H5.41516V2.02H6.94516V0.5Z" fill="#EC4899"/>
<path d="M5.41514 2.02002H3.89514V8.12002H5.41514V2.02002Z" fill="#EC4899"/>
<path d="M3.89512 17.2598H2.37512V24.8798H3.89512V17.2598Z" fill="#EC4899"/>
</g>
<defs>
<clipPath id="clip0_1178_17076">
<rect width="32" height="32" fill="white" transform="translate(0.850098 0.5)"/>
</clipPath>
</defs>
</svg>
