<svg width="33" height="32" viewBox="0 0 33 32" fill="none" xmlns="http://www.w3.org/2000/svg">
<path d="M31.3252 16.76H29.8052V24.38H31.3252V16.76Z" fill="#94a3b8"/>
<path d="M29.8051 1.52002H28.2751V7.62002H29.8051V1.52002Z" fill="#94a3b8"/>
<path d="M28.2751 16.76H29.8051V15.24H28.2751V13.71H26.7551V28.95H28.2751V25.9H29.8051V24.38H28.2751V16.76Z" fill="#94a3b8"/>
<path d="M28.2751 7.62H26.7551V9.14H28.2751V7.62Z" fill="#94a3b8"/>
<path d="M28.2751 0H26.7551V1.52H28.2751V0Z" fill="#94a3b8"/>
<path d="M26.7551 28.95H25.2251V30.4799H26.7551V28.95Z" fill="#94a3b8"/>
<path d="M26.7551 12.1899H25.2251V13.7099H26.7551V12.1899Z" fill="#94a3b8"/>
<path d="M25.2251 16.76H23.7051V19.81H25.2251V16.76Z" fill="#94a3b8"/>
<path d="M25.2251 3.05005H23.7051V6.09005H25.2251V3.05005Z" fill="#94a3b8"/>
<path d="M25.2251 30.48H8.46509V32H25.2251V30.48Z" fill="#94a3b8"/>
<path d="M23.7052 15.24H20.6552V16.76H23.7052V15.24Z" fill="#94a3b8"/>
<path d="M23.7052 6.08997H22.1852V7.61997H23.7052V6.08997Z" fill="#94a3b8"/>
<path d="M23.7052 1.52002H22.1852V3.05002H23.7052V1.52002Z" fill="#94a3b8"/>
<path d="M23.7052 19.8101H20.6552V21.3301H23.7052V19.8101Z" fill="#94a3b8"/>
<path d="M11.5151 24.38V25.9H13.0351V27.43H14.5651V28.95H19.1351V27.43H20.6551V25.9H22.1851V24.38H11.5151Z" fill="#94a3b8"/>
<path d="M20.6551 16.76H19.1351V19.81H20.6551V16.76Z" fill="#94a3b8"/>
<path d="M14.5651 22.8601H19.1351V21.3301H17.6051V19.8101H16.0851V21.3301H14.5651V22.8601Z" fill="#94a3b8"/>
<path d="M14.5652 16.76H13.0352V19.81H14.5652V16.76Z" fill="#94a3b8"/>
<path d="M13.0351 19.8101H9.99512V21.3301H13.0351V19.8101Z" fill="#94a3b8"/>
<path d="M13.0351 15.24H9.99512V16.76H13.0351V15.24Z" fill="#94a3b8"/>
<path d="M25.2251 12.19V10.67H17.6051V7.62H19.1351V6.09H20.6551V1.52H19.1351V0H14.5651V1.52H13.0351V6.09H14.5651V7.62H16.0851V10.67H8.46509V12.19H25.2251Z" fill="#94a3b8"/>
<path d="M11.5151 6.08997H9.99512V7.61997H11.5151V6.08997Z" fill="#94a3b8"/>
<path d="M11.5151 1.52002H9.99512V3.05002H11.5151V1.52002Z" fill="#94a3b8"/>
<path d="M9.99509 16.76H8.46509V19.81H9.99509V16.76Z" fill="#94a3b8"/>
<path d="M9.99509 3.05005H8.46509V6.09005H9.99509V3.05005Z" fill="#94a3b8"/>
<path d="M8.46507 28.95H6.94507V30.4799H8.46507V28.95Z" fill="#94a3b8"/>
<path d="M8.46507 12.1899H6.94507V13.7099H8.46507V12.1899Z" fill="#94a3b8"/>
<path d="M6.94514 13.71H5.41514V15.24H3.89514V16.76H5.41514V24.38H3.89514V25.9H5.41514V28.95H6.94514V13.71Z" fill="#94a3b8"/>
<path d="M6.94516 7.62H5.41516V9.14H6.94516V7.62Z" fill="#94a3b8"/>
<path d="M6.94516 0H5.41516V1.52H6.94516V0Z" fill="#94a3b8"/>
<path d="M5.41514 1.52002H3.89514V7.62002H5.41514V1.52002Z" fill="#94a3b8"/>
<path d="M3.89512 16.76H2.37512V24.38H3.89512V16.76Z" fill="#94a3b8"/>
</svg>
