<svg width="33" height="33" viewBox="0 0 33 33" fill="none" xmlns="http://www.w3.org/2000/svg">
<g clip-path="url(#clip0_1178_9667)">
<path d="M31.9402 2.03003H30.4102V20.31H31.9402V2.03003Z" fill="#EC4899"/>
<path d="M2.98019 30.98V29.46H1.46019V32.5H31.9402V29.46H30.4102V30.98H2.98019Z" fill="#EC4899"/>
<path d="M30.4102 27.9299H28.8902V29.4599H30.4102V27.9299Z" fill="#EC4899"/>
<path d="M28.8902 26.4099H27.3702V27.9299H28.8902V26.4099Z" fill="#EC4899"/>
<path d="M7.56019 23.3601V24.8801H25.8402V23.3601H21.2702V21.8401H30.4102V20.3101H2.98019V21.8401H12.1302V23.3601H7.56019ZM13.6502 21.8401H19.7502V23.3601H13.6502V21.8401Z" fill="#EC4899"/>
<path d="M27.3702 24.8799H25.8402V26.4099H27.3702V24.8799Z" fill="#EC4899"/>
<path d="M28.8902 3.55005H4.51019V18.79H28.8902V3.55005ZM27.3702 17.26H6.03019V5.07005H27.3702V17.26Z" fill="#EC4899"/>
<path d="M25.8402 27.9299H24.3202V29.4599H25.8402V27.9299Z" fill="#EC4899"/>
<path d="M24.3202 26.4099H22.7902V27.9299H24.3202V26.4099Z" fill="#EC4899"/>
<path d="M19.7502 11.1701H21.2702V12.6901H22.7902V11.1701H24.3202V9.6501H25.8402V8.1201H24.3202V6.6001H22.7902V8.1201H21.2702V6.6001H19.7502V8.1201H18.2202V9.6501H19.7502V11.1701Z" fill="#EC4899"/>
<path d="M21.2702 27.9299H19.7502V29.4599H21.2702V27.9299Z" fill="#EC4899"/>
<path d="M19.7502 26.4099H18.2202V27.9299H19.7502V26.4099Z" fill="#EC4899"/>
<path d="M16.7002 27.9299H15.1702V29.4599H16.7002V27.9299Z" fill="#EC4899"/>
<path d="M15.1702 26.4099H13.6502V27.9299H15.1702V26.4099Z" fill="#EC4899"/>
<path d="M13.6502 27.9299H12.1302V29.4599H13.6502V27.9299Z" fill="#EC4899"/>
<path d="M10.6002 26.4099H9.08018V27.9299H10.6002V26.4099Z" fill="#EC4899"/>
<path d="M9.0802 27.9299H7.5602V29.4599H9.0802V27.9299Z" fill="#EC4899"/>
<path d="M7.56018 24.8799H6.03018V26.4099H7.56018V24.8799Z" fill="#EC4899"/>
<path d="M6.03019 26.4099H4.51019V27.9299H6.03019V26.4099Z" fill="#EC4899"/>
<path d="M30.4102 0.5H2.98019V2.03H30.4102V0.5Z" fill="#EC4899"/>
<path d="M4.51019 27.9299H2.98019V29.4599H4.51019V27.9299Z" fill="#EC4899"/>
<path d="M2.98019 2.03003H1.46019V20.31H2.98019V2.03003Z" fill="#EC4899"/>
</g>
<defs>
<clipPath id="clip0_1178_9667">
<rect width="32" height="32" fill="white" transform="translate(0.700195 0.5)"/>
</clipPath>
</defs>
</svg>
