<svg width="33" height="32" viewBox="0 0 33 32" fill="none" xmlns="http://www.w3.org/2000/svg">
<path d="M31.9402 1.53H30.4102V19.81H31.9402V1.53Z" fill="#000001"/>
<path d="M2.98019 30.48V28.96H1.46019V32H31.9402V28.96H30.4102V30.48H2.98019Z" fill="#000001"/>
<path d="M30.4102 27.43H28.8902V28.96H30.4102V27.43Z" fill="#000001"/>
<path d="M28.8902 25.91H27.3702V27.43H28.8902V25.91Z" fill="#000001"/>
<path d="M7.56019 22.86V24.38H25.8402V22.86H21.2702V21.34H30.4102V19.81H2.98019V21.34H12.1302V22.86H7.56019ZM13.6502 21.34H19.7502V22.86H13.6502V21.34Z" fill="#000001"/>
<path d="M27.3702 24.38H25.8402V25.91H27.3702V24.38Z" fill="#000001"/>
<path d="M28.8902 3.05H4.51019V18.29H28.8902V3.05ZM27.3702 16.76H6.03019V4.57H27.3702V16.76Z" fill="#000001"/>
<path d="M25.8402 27.43H24.3202V28.96H25.8402V27.43Z" fill="#000001"/>
<path d="M24.3202 25.91H22.7902V27.43H24.3202V25.91Z" fill="#000001"/>
<path d="M19.7502 10.67H21.2702V12.19H22.7902V10.67H24.3202V9.15001H25.8402V7.62001H24.3202V6.10001H22.7902V7.62001H21.2702V6.10001H19.7502V7.62001H18.2202V9.15001H19.7502V10.67Z" fill="#000001"/>
<path d="M21.2702 27.43H19.7502V28.96H21.2702V27.43Z" fill="#000001"/>
<path d="M19.7502 25.91H18.2202V27.43H19.7502V25.91Z" fill="#000001"/>
<path d="M16.7002 27.43H15.1702V28.96H16.7002V27.43Z" fill="#000001"/>
<path d="M15.1702 25.91H13.6502V27.43H15.1702V25.91Z" fill="#000001"/>
<path d="M13.6502 27.43H12.1302V28.96H13.6502V27.43Z" fill="#000001"/>
<path d="M10.6002 25.91H9.08018V27.43H10.6002V25.91Z" fill="#000001"/>
<path d="M9.0802 27.43H7.5602V28.96H9.0802V27.43Z" fill="#000001"/>
<path d="M7.56018 24.38H6.03018V25.91H7.56018V24.38Z" fill="#000001"/>
<path d="M6.03019 25.91H4.51019V27.43H6.03019V25.91Z" fill="#000001"/>
<path d="M30.4102 0H2.98019V1.53H30.4102V0Z" fill="#000001"/>
<path d="M4.51019 27.43H2.98019V28.96H4.51019V27.43Z" fill="#000001"/>
<path d="M2.98019 1.53H1.46019V19.81H2.98019V1.53Z" fill="#000001"/>
</svg>
