<svg width="33" height="32" viewBox="0 0 33 32" fill="none" xmlns="http://www.w3.org/2000/svg">
<g clip-path="url(#clip0_1135_4501)">
<path d="M32.8501 18.285H31.3301V19.815H32.8501V18.285Z" fill="#94a3b8"/>
<path d="M31.3302 16.765H28.2802V18.285H31.3302V16.765Z" fill="#94a3b8"/>
<path d="M29.8002 13.715H28.2802V15.245H29.8002V13.715Z" fill="#94a3b8"/>
<path d="M23.7101 15.245V12.195H22.1901V10.665H20.6601V7.62502H22.1901V6.09502H28.2801V7.62502H29.8001V13.715H31.3301V4.57502H29.8001V3.04502H28.2801V1.52502H22.1901V3.04502H20.6601V4.57502H19.1401V9.14502H14.5701V4.57502H13.0401V3.04502H11.5201V1.52502H5.42013V3.04502H3.90013V4.57502H2.38013V13.715H3.90013V7.62502H5.42013V6.09502H11.5201V7.62502H13.0401V10.665H11.5201V12.195H10.0001V15.245H5.42013V16.765H10.0001V22.855H11.5201V15.245H13.0401V13.715H20.6601V15.245H22.1901V22.855H23.7101V16.765H28.2801V15.245H23.7101Z" fill="#94a3b8"/>
<path d="M26.7601 28.955H25.2301V30.475H26.7601V28.955Z" fill="#94a3b8"/>
<path d="M25.2302 27.435H23.7102V28.955H25.2302V27.435Z" fill="#94a3b8"/>
<path d="M23.7102 25.905H20.6602V27.435H23.7102V25.905Z" fill="#94a3b8"/>
<path d="M22.1902 22.855H20.6602V24.385H22.1902V22.855Z" fill="#94a3b8"/>
<path d="M20.6601 16.765H19.1401V19.815H20.6601V16.765Z" fill="#94a3b8"/>
<path d="M20.66 24.385H13.04V25.905H20.66V24.385Z" fill="#94a3b8"/>
<path d="M19.1401 21.335H14.5701V22.855H19.1401V21.335Z" fill="#94a3b8"/>
<path d="M14.57 16.765H13.04V19.815H14.57V16.765Z" fill="#94a3b8"/>
<path d="M13.04 22.855H11.52V24.385H13.04V22.855Z" fill="#94a3b8"/>
<path d="M13.04 25.905H10V27.435H13.04V25.905Z" fill="#94a3b8"/>
<path d="M10.0002 27.435H8.47021V28.955H10.0002V27.435Z" fill="#94a3b8"/>
<path d="M8.4702 28.955H6.9502V30.475H8.4702V28.955Z" fill="#94a3b8"/>
<path d="M5.42015 13.715H3.90015V15.245H5.42015V13.715Z" fill="#94a3b8"/>
<path d="M5.42013 16.765H2.38013V18.285H5.42013V16.765Z" fill="#94a3b8"/>
<path d="M2.3801 18.285H0.850098V19.815H2.3801V18.285Z" fill="#94a3b8"/>
</g>
<defs>
<clipPath id="clip0_1135_4501">
<rect width="32" height="32" fill="white" transform="translate(0.850098)"/>
</clipPath>
</defs>
</svg>
