<svg width="33" height="32" viewBox="0 0 33 32" fill="none" xmlns="http://www.w3.org/2000/svg">
<g clip-path="url(#clip0_1128_12284)">
<path d="M32.8501 6.1H31.3201V10.67H32.8501V6.1Z" fill="#000001"/>
<path d="M31.32 10.67H29.8V12.19H31.32V10.67Z" fill="#000001"/>
<path d="M31.32 4.57H29.8V6.1H31.32V4.57Z" fill="#000001"/>
<path d="M29.8002 12.19H28.2802V13.71H29.8002V12.19Z" fill="#000001"/>
<path d="M29.8002 3.05H28.2802V4.57H29.8002V3.05Z" fill="#000001"/>
<path d="M28.2801 13.71H26.7501V15.24H28.2801V13.71Z" fill="#000001"/>
<path d="M28.2801 10.67H26.7501V12.19H28.2801V10.67Z" fill="#000001"/>
<path d="M28.2801 1.52H26.7501V3.05H28.2801V1.52Z" fill="#000001"/>
<path d="M26.7501 15.24H25.2301V16.76H26.7501V15.24Z" fill="#000001"/>
<path d="M26.7501 9.14H25.2301V10.67H26.7501V9.14Z" fill="#000001"/>
<path d="M25.2301 16.76H23.7001V18.29H25.2301V16.76Z" fill="#000001"/>
<path d="M25.2301 10.67H23.7001V12.19H25.2301V10.67Z" fill="#000001"/>
<path d="M25.2301 7.62H23.7001V9.14H25.2301V7.62Z" fill="#000001"/>
<path d="M26.7501 0H22.1801V1.52H26.7501V0Z" fill="#000001"/>
<path d="M23.7001 18.29H22.1801V19.81H23.7001V18.29Z" fill="#000001"/>
<path d="M23.7001 12.19H22.1801V13.71H23.7001V12.19Z" fill="#000001"/>
<path d="M23.7001 6.1H22.1801V7.62H23.7001V6.1Z" fill="#000001"/>
<path d="M22.1802 19.81H20.6602V21.33H22.1802V19.81Z" fill="#000001"/>
<path d="M22.1802 13.71H20.6602V15.24H22.1802V13.71Z" fill="#000001"/>
<path d="M22.1802 7.62H20.6602V9.14H22.1802V7.62Z" fill="#000001"/>
<path d="M22.1802 4.57H20.6602V6.1H22.1802V4.57Z" fill="#000001"/>
<path d="M22.1802 1.52H20.6602V3.05H22.1802V1.52Z" fill="#000001"/>
<path d="M20.6601 21.33H19.1301V22.86H20.6601V21.33Z" fill="#000001"/>
<path d="M20.6601 15.24H19.1301V16.76H20.6601V15.24Z" fill="#000001"/>
<path d="M20.6601 9.14H19.1301V10.67H20.6601V9.14Z" fill="#000001"/>
<path d="M20.6601 3.05H19.1301V4.57H20.6601V3.05Z" fill="#000001"/>
<path d="M19.1301 22.86H17.6101V24.38H19.1301V22.86Z" fill="#000001"/>
<path d="M19.1301 16.76H17.6101V18.29H19.1301V16.76Z" fill="#000001"/>
<path d="M19.1301 10.67H17.6101V12.19H19.1301V10.67Z" fill="#000001"/>
<path d="M19.1301 4.57H17.6101V6.1H19.1301V4.57Z" fill="#000001"/>
<path d="M17.6101 24.38H16.0901V25.9H17.6101V24.38Z" fill="#000001"/>
<path d="M17.6101 18.29H16.0901V19.81H17.6101V18.29Z" fill="#000001"/>
<path d="M17.6101 12.19H16.0901V13.71H17.6101V12.19Z" fill="#000001"/>
<path d="M17.6101 6.1H16.0901V7.62H17.6101V6.1Z" fill="#000001"/>
<path d="M16.0901 25.9H14.5601V27.43H16.0901V25.9Z" fill="#000001"/>
<path d="M16.0901 19.81H14.5601V21.33H16.0901V19.81Z" fill="#000001"/>
<path d="M16.0901 13.71H14.5601V15.24H16.0901V13.71Z" fill="#000001"/>
<path d="M16.0901 7.62H14.5601V9.14H16.0901V7.62Z" fill="#000001"/>
<path d="M14.56 27.43H13.04V28.95H14.56V27.43Z" fill="#000001"/>
<path d="M14.56 21.33H13.04V22.86H14.56V21.33Z" fill="#000001"/>
<path d="M14.56 15.24H13.04V16.76H14.56V15.24Z" fill="#000001"/>
<path d="M14.56 9.14H13.04V10.67H14.56V9.14Z" fill="#000001"/>
<path d="M13.0401 22.86H11.5101V24.38H13.0401V22.86Z" fill="#000001"/>
<path d="M13.0401 16.76H11.5101V18.29H13.0401V16.76Z" fill="#000001"/>
<path d="M13.0401 10.67H11.5101V12.19H13.0401V10.67Z" fill="#000001"/>
<path d="M11.5101 30.48H13.0401V28.95H11.5101V24.38H8.4701V21.33H3.9001V19.81H2.3701V21.33H0.850098V32H11.5101V30.48ZM9.9901 30.48H5.4201V28.95H3.9001V27.43H2.3701V22.86H6.9401V25.9H9.9901V30.48Z" fill="#000001"/>
<path d="M11.5101 18.29H9.99011V19.81H11.5101V18.29Z" fill="#000001"/>
<path d="M11.5101 12.19H9.99011V13.71H11.5101V12.19Z" fill="#000001"/>
<path d="M9.99009 19.81H8.47009V21.33H9.99009V19.81Z" fill="#000001"/>
<path d="M9.99009 13.71H8.47009V15.24H9.99009V13.71Z" fill="#000001"/>
<path d="M8.47006 15.24H6.94006V16.76H8.47006V15.24Z" fill="#000001"/>
<path d="M6.94004 16.76H5.42004V18.29H6.94004V16.76Z" fill="#000001"/>
<path d="M5.42015 18.29H3.90015V19.81H5.42015V18.29Z" fill="#000001"/>
</g>
<defs>
<clipPath id="clip0_1128_12284">
<rect width="32" height="32" fill="white" transform="translate(0.850098)"/>
</clipPath>
</defs>
</svg>
