<svg width="33" height="33" viewBox="0 0 33 33" fill="none" xmlns="http://www.w3.org/2000/svg">
<path d="M31.3252 15.9849H29.8052V17.5149H31.3252V15.9849Z" fill="#EC4899"/>
<path d="M29.8051 17.5151H28.2751V19.0351H29.8051V17.5151Z" fill="#EC4899"/>
<path d="M29.8051 14.4648H28.2751V15.9848H29.8051V14.4648Z" fill="#EC4899"/>
<path d="M28.2751 19.0347H26.7551V20.5647H28.2751V19.0347Z" fill="#EC4899"/>
<path d="M28.2751 12.9448H26.7551V14.4648H28.2751V12.9448Z" fill="#EC4899"/>
<path d="M25.2352 25.1349H20.6652V26.6549H26.7552V20.5649H25.2352V25.1349Z" fill="#EC4899"/>
<path d="M22.1851 15.9848H19.1351V17.5148H22.1851V19.0348H19.1351V20.5648H20.6651V22.0848H22.1851V20.5648H23.7051V14.4648H22.1851V15.9848Z" fill="#EC4899"/>
<path d="M25.2352 8.37473V12.9447H26.7552V6.84473H20.6652V8.37473H25.2352Z" fill="#EC4899"/>
<path d="M20.6651 26.6548H19.1351V28.1848H20.6651V26.6548Z" fill="#EC4899"/>
<path d="M22.1851 12.9448H19.1351V14.4648H22.1851V12.9448Z" fill="#EC4899"/>
<path d="M20.6651 5.32471H19.1351V6.84471H20.6651V5.32471Z" fill="#EC4899"/>
<path d="M19.1351 28.1851H17.6151V29.7051H19.1351V28.1851Z" fill="#EC4899"/>
<path d="M20.6651 22.085H14.5651V23.605H20.6651V22.085Z" fill="#EC4899"/>
<path d="M19.1351 9.89502H17.6151V12.945H19.1351V9.89502Z" fill="#EC4899"/>
<path d="M19.1351 3.79492H17.6151V5.32492H19.1351V3.79492Z" fill="#EC4899"/>
<path d="M17.6151 29.7051H16.0851V31.2251H17.6151V29.7051Z" fill="#EC4899"/>
<path d="M17.6151 8.375H16.0851V9.895H17.6151V8.375Z" fill="#EC4899"/>
<path d="M17.6151 2.2749H16.0851V3.7949H17.6151V2.2749Z" fill="#EC4899"/>
<path d="M16.0851 28.1851H14.5651V29.7051H16.0851V28.1851Z" fill="#EC4899"/>
<path d="M16.0851 9.89502H14.5651V12.945H16.0851V9.89502Z" fill="#EC4899"/>
<path d="M16.0851 3.79492H14.5651V5.32492H16.0851V3.79492Z" fill="#EC4899"/>
<path d="M14.5652 26.6548H13.0452V28.1848H14.5652V26.6548Z" fill="#EC4899"/>
<path d="M13.0451 20.5648V14.4648H14.5651V12.9448H9.99512V22.0848H14.5651V20.5648H13.0451Z" fill="#EC4899"/>
<path d="M14.5652 5.32471H13.0452V6.84471H14.5652V5.32471Z" fill="#EC4899"/>
<path d="M8.47507 25.1349V20.5649H6.94507V26.6549H13.0451V25.1349H8.47507Z" fill="#EC4899"/>
<path d="M8.47507 8.37473H13.0451V6.84473H6.94507V12.9447H8.47507V8.37473Z" fill="#EC4899"/>
<path d="M6.94517 19.0347H5.42517V20.5647H6.94517V19.0347Z" fill="#EC4899"/>
<path d="M6.94517 12.9448H5.42517V14.4648H6.94517V12.9448Z" fill="#EC4899"/>
<path d="M5.42514 17.5151H3.89514V19.0351H5.42514V17.5151Z" fill="#EC4899"/>
<path d="M5.42514 14.4648H3.89514V15.9848H5.42514V14.4648Z" fill="#EC4899"/>
<path d="M3.89512 15.9849H2.37512V17.5149H3.89512V15.9849Z" fill="#EC4899"/>
</svg>
