<svg width="33" height="33" viewBox="0 0 33 33" fill="none" xmlns="http://www.w3.org/2000/svg">
<path d="M31.3252 15.485H29.8052V17.015H31.3252V15.485Z" fill="#94a3b8"/>
<path d="M29.8051 17.015H28.2751V18.535H29.8051V17.015Z" fill="#94a3b8"/>
<path d="M29.8051 13.965H28.2751V15.485H29.8051V13.965Z" fill="#94a3b8"/>
<path d="M28.2751 18.535H26.7551V20.065H28.2751V18.535Z" fill="#94a3b8"/>
<path d="M28.2751 12.4451H26.7551V13.9651H28.2751V12.4451Z" fill="#94a3b8"/>
<path d="M25.2352 24.6351H20.6652V26.1551H26.7552V20.0651H25.2352V24.6351Z" fill="#94a3b8"/>
<path d="M22.1851 15.485H19.1351V17.015H22.1851V18.535H19.1351V20.065H20.6651V21.585H22.1851V20.065H23.7051V13.965H22.1851V15.485Z" fill="#94a3b8"/>
<path d="M25.2352 7.87497V12.445H26.7552V6.34497H20.6652V7.87497H25.2352Z" fill="#94a3b8"/>
<path d="M20.6651 26.155H19.1351V27.685H20.6651V26.155Z" fill="#94a3b8"/>
<path d="M22.1851 12.4451H19.1351V13.9651H22.1851V12.4451Z" fill="#94a3b8"/>
<path d="M20.6651 4.82507H19.1351V6.34507H20.6651V4.82507Z" fill="#94a3b8"/>
<path d="M19.1351 27.6851H17.6151V29.2051H19.1351V27.6851Z" fill="#94a3b8"/>
<path d="M20.6651 21.5851H14.5651V23.1051H20.6651V21.5851Z" fill="#94a3b8"/>
<path d="M19.1351 9.39502H17.6151V12.445H19.1351V9.39502Z" fill="#94a3b8"/>
<path d="M19.1351 3.29504H17.6151V4.82504H19.1351V3.29504Z" fill="#94a3b8"/>
<path d="M17.6151 29.2051H16.0851V30.7251H17.6151V29.2051Z" fill="#94a3b8"/>
<path d="M17.6151 7.875H16.0851V9.395H17.6151V7.875Z" fill="#94a3b8"/>
<path d="M17.6151 1.77502H16.0851V3.29502H17.6151V1.77502Z" fill="#94a3b8"/>
<path d="M16.0851 27.6851H14.5651V29.2051H16.0851V27.6851Z" fill="#94a3b8"/>
<path d="M16.0851 9.39502H14.5651V12.445H16.0851V9.39502Z" fill="#94a3b8"/>
<path d="M16.0851 3.29504H14.5651V4.82504H16.0851V3.29504Z" fill="#94a3b8"/>
<path d="M14.5652 26.155H13.0452V27.685H14.5652V26.155Z" fill="#94a3b8"/>
<path d="M13.0451 20.0651V13.9651H14.5651V12.4451H9.99512V21.5851H14.5651V20.0651H13.0451Z" fill="#94a3b8"/>
<path d="M14.5652 4.82507H13.0452V6.34507H14.5652V4.82507Z" fill="#94a3b8"/>
<path d="M8.47507 24.6351V20.0651H6.94507V26.1551H13.0451V24.6351H8.47507Z" fill="#94a3b8"/>
<path d="M8.47507 7.87497H13.0451V6.34497H6.94507V12.445H8.47507V7.87497Z" fill="#94a3b8"/>
<path d="M6.94517 18.535H5.42517V20.065H6.94517V18.535Z" fill="#94a3b8"/>
<path d="M6.94517 12.4451H5.42517V13.9651H6.94517V12.4451Z" fill="#94a3b8"/>
<path d="M5.42514 17.015H3.89514V18.535H5.42514V17.015Z" fill="#94a3b8"/>
<path d="M5.42514 13.965H3.89514V15.485H5.42514V13.965Z" fill="#94a3b8"/>
<path d="M3.89512 15.485H2.37512V17.015H3.89512V15.485Z" fill="#94a3b8"/>
</svg>
